<?xml version="1.0" standalone="no"?>
<!DOCTYPE svg PUBLIC "-//W3C//DTD SVG 20010904//EN"
 "http://www.w3.org/TR/2001/REC-SVG-20010904/DTD/svg10.dtd">
<svg version="1.0" xmlns="http://www.w3.org/2000/svg"
 width="256.000000pt" height="256.000000pt" viewBox="0 0 256.000000 256.000000"
 preserveAspectRatio="xMidYMid meet">
<metadata>
Created by potrace 1.14, written by Peter Selinger 2001-2017
</metadata>
<g transform="translate(0.000000,256.000000) scale(0.100000,-0.100000)"
fill="#000000" stroke="none">
<path d="M220 2538 c-11 -12 -39 -54 -62 -92 -23 -39 -47 -78 -53 -86 -11 -14
-55 -154 -55 -174 0 -4 6 -6 14 -3 10 4 13 -2 12 -19 0 -13 -4 -24 -8 -24 -5
0 -8 -10 -9 -22 0 -13 -3 -17 -6 -10 -2 6 -8 12 -12 12 -10 0 17 -122 30 -134
5 -6 9 -24 9 -42 0 -17 5 -46 11 -64 7 -20 8 -35 2 -39 -20 -13 -21 -38 -1
-50 16 -10 17 -15 8 -27 -7 -8 -18 -14 -26 -14 -7 0 -17 -7 -22 -15 -4 -9 -18
-17 -29 -18 -17 -1 -21 -8 -21 -34 0 -21 4 -31 11 -26 7 4 8 0 2 -13 -14 -31
-19 -138 -6 -130 7 5 11 -3 11 -19 0 -15 -4 -24 -10 -20 -5 3 -10 -3 -10 -14
0 -11 9 -25 20 -31 11 -6 20 -17 20 -25 0 -8 4 -15 10 -15 14 0 30 35 30 68 0
16 6 50 14 75 17 55 11 62 -10 12 -17 -40 -37 -38 -28 3 13 60 15 63 35 57 17
-6 19 -1 19 40 0 40 22 105 35 105 3 0 2 -25 -1 -55 -6 -48 -5 -55 11 -55 9 0
19 9 22 20 8 29 23 25 23 -6 0 -47 28 -8 35 49 4 29 20 99 36 157 18 63 27
116 24 132 -4 17 1 41 14 67 12 22 21 47 21 54 0 8 12 40 26 71 15 32 23 64
19 75 -3 11 -1 22 5 26 5 3 10 18 10 32 0 24 26 93 50 133 63 103 58 110 -84
110 -106 0 -117 -2 -136 -22z m250 -6 c0 -5 -16 -26 -35 -48 -19 -21 -35 -43
-35 -48 0 -5 -3 -6 -7 -3 -3 4 8 25 25 46 18 22 32 45 32 50 0 6 5 11 10 11 6
0 10 -4 10 -8z m-236 -136 c-9 -15 -19 -25 -21 -22 -3 2 3 16 13 30 9 15 19
25 21 22 3 -2 -3 -16 -13 -30z m32 -471 c-14 -18 -26 -38 -26 -43 0 -18 -47
-53 -64 -46 -22 8 -17 34 9 48 11 6 23 16 27 21 4 6 14 19 23 30 14 17 16 17
11 3 -3 -10 -1 -18 4 -18 6 0 10 8 10 18 0 22 23 48 28 32 2 -6 -8 -26 -22
-45z m-100 -121 c-3 -9 -6 -23 -6 -32 0 -14 -2 -14 -9 -3 -10 16 -3 51 11 51
6 0 7 -7 4 -16z"/>
<path d="M600 2508 c-7 -29 -21 -69 -31 -88 -39 -74 -69 -157 -73 -198 -2 -23
-10 -49 -16 -57 -7 -8 -10 -25 -6 -37 8 -31 -45 -322 -65 -359 -5 -11 -7 -19
-4 -19 25 0 83 217 100 375 10 95 56 235 76 235 4 0 15 23 24 51 10 28 23 53
31 56 8 3 14 12 14 20 0 9 6 13 14 10 9 -4 17 2 21 13 3 10 12 21 20 24 33 12
12 26 -39 26 l-54 0 -12 -52z"/>
<path d="M1940 2551 c0 -5 7 -14 15 -21 8 -7 15 -19 15 -27 0 -8 4 -11 10 -8
15 10 59 -44 72 -89 7 -22 21 -49 31 -59 33 -33 56 -121 81 -314 14 -104 48
-227 68 -248 7 -7 8 -3 4 10 -22 77 -59 312 -52 324 4 6 0 27 -9 47 -8 20 -15
48 -15 63 0 24 -52 162 -70 186 -4 6 -13 28 -19 50 -29 95 -29 95 -82 95 -27
0 -49 -4 -49 -9z"/>
<path d="M2177 2548 c-4 -14 23 -81 36 -86 4 -2 7 -8 7 -13 0 -6 9 -29 19 -52
11 -23 22 -59 26 -80 4 -20 11 -39 15 -42 5 -3 6 -13 3 -23 -2 -11 16 -72 42
-137 31 -77 43 -120 36 -124 -7 -5 -8 -17 -2 -37 19 -60 50 -180 56 -213 15
-96 45 -149 45 -83 l1 27 20 -28 c11 -15 25 -25 29 -22 5 3 7 31 5 63 l-4 57
19 -40 c11 -23 19 -61 19 -93 0 -30 2 -56 5 -59 3 -3 5 172 6 388 l0 394 -33
54 c-17 30 -40 68 -50 85 -45 74 -49 76 -178 76 -85 0 -119 -3 -122 -12z m40
-38 c9 -16 20 -30 24 -30 3 0 11 -12 18 -27 l12 -28 -26 30 c-46 55 -66 85
-56 85 5 0 18 -13 28 -30z m216 -110 c10 -16 16 -30 14 -30 -2 0 -13 14 -25
30 -13 17 -19 30 -14 30 4 0 16 -13 25 -30z m-86 -282 c-3 -8 -6 -5 -6 6 -1
11 2 17 5 13 3 -3 4 -12 1 -19z m52 -163 c5 2 19 -11 32 -30 13 -19 29 -35 35
-35 6 0 17 -7 24 -15 10 -13 10 -19 -5 -35 -14 -15 -20 -17 -30 -7 -21 21 -45
74 -37 82 4 5 2 5 -5 1 -13 -7 -43 30 -43 54 1 12 3 11 11 -3 6 -9 14 -15 18
-12z m114 -182 c-9 -24 -22 -13 -21 17 1 26 3 28 13 13 7 -10 11 -23 8 -30z"/>
<path d="M149 2523 c-13 -16 -12 -17 4 -4 9 7 17 15 17 17 0 8 -8 3 -21 -13z"/>
<path d="M2496 2527 c3 -10 9 -15 12 -12 3 3 0 11 -7 18 -10 9 -11 8 -5 -6z"/>
<path d="M1365 2410 c-3 -5 -1 -10 4 -10 6 0 11 5 11 10 0 6 -2 10 -4 10 -3 0
-8 -4 -11 -10z"/>
<path d="M1312 2398 c7 -19 35 -21 35 -3 0 8 -9 15 -19 15 -11 0 -18 -5 -16
-12z"/>
<path d="M2186 2397 c3 -10 9 -15 12 -12 3 3 0 11 -7 18 -10 9 -11 8 -5 -6z"/>
<path d="M1296 2340 c2 -24 -2 -30 -14 -28 -9 2 -19 14 -23 28 -4 16 -7 19 -8
8 -1 -10 -5 -18 -11 -18 -5 0 -16 -16 -24 -35 -8 -19 -20 -35 -25 -35 -6 0
-11 -9 -11 -20 0 -11 6 -20 13 -20 8 0 7 -4 -3 -10 -13 -9 -13 -11 0 -19 12
-9 12 -11 -2 -16 -16 -6 -16 -8 -1 -32 10 -15 16 -40 14 -61 -1 -19 1 -37 6
-41 5 -3 4 -21 -3 -40 l-11 -34 -7 27 c-5 22 -10 25 -31 20 -24 -6 -85 14 -85
28 0 5 -5 8 -11 8 -6 0 -9 -6 -6 -14 6 -15 -9 -16 -32 -2 -11 7 -11 10 0 17 7
4 10 11 6 15 -4 4 -14 -1 -21 -12 -13 -17 -17 -18 -38 -5 -28 18 -173 22 -238
7 -25 -6 -57 -21 -70 -33 -13 -13 -30 -23 -37 -23 -7 0 -13 -7 -13 -15 0 -8
-9 -20 -20 -27 -14 -9 -20 -24 -20 -51 0 -41 20 -58 45 -37 8 6 19 9 25 5 5
-3 10 1 10 10 0 19 24 30 41 19 9 -5 6 -10 -9 -15 -14 -5 -20 -14 -16 -24 4
-9 -6 -25 -25 -42 -17 -15 -31 -33 -31 -39 0 -6 -8 -14 -17 -16 -20 -5 -50
-54 -40 -65 13 -13 97 -10 108 3 19 23 38 16 67 -26 15 -22 35 -42 44 -45 10
-4 15 -12 11 -21 -4 -10 -9 -12 -15 -6 -18 18 -48 -24 -42 -58 4 -19 2 -30 -4
-30 -6 0 -9 -6 -6 -14 3 -8 -5 -22 -18 -31 -13 -10 -16 -15 -7 -12 9 3 21 1
27 -5 9 -9 91 -20 146 -19 11 0 27 -4 37 -10 13 -7 20 -5 27 7 8 15 11 14 24
-5 15 -20 15 -21 66 -2 66 24 147 74 178 109 13 15 33 46 44 70 20 43 44 54
67 31 9 -9 19 -9 42 1 37 15 61 8 61 -19 0 -23 62 -100 98 -121 14 -8 34 -22
45 -31 10 -9 43 -24 73 -34 30 -9 56 -21 59 -25 7 -12 35 -1 35 14 0 7 19 11
48 11 26 0 50 4 54 9 4 6 16 6 30 -1 18 -8 30 -8 44 0 10 6 26 11 34 12 9 0
14 8 13 20 -2 11 -5 39 -8 63 -5 49 -41 106 -47 75 -2 -12 -6 -14 -11 -7 -6
10 10 31 71 97 9 10 23 15 32 11 8 -4 34 -11 58 -17 35 -9 46 -8 58 5 15 14
14 18 -1 42 -10 14 -24 26 -31 26 -8 0 -14 7 -14 15 0 9 -11 21 -25 27 -14 6
-25 17 -25 25 0 7 -4 13 -9 13 -5 0 -11 8 -15 18 -3 9 -8 22 -11 28 -3 6 4 14
16 17 15 4 23 0 26 -14 3 -10 12 -19 19 -19 8 0 14 -4 14 -10 0 -14 37 -13 46
2 5 7 3 8 -7 3 -12 -7 -12 -6 -1 7 16 19 11 51 -11 76 -9 10 -17 24 -17 30 0
7 -6 12 -14 12 -7 0 -25 11 -40 25 -15 14 -32 23 -37 19 -5 -3 -17 0 -26 7
-22 19 -187 20 -232 2 -43 -17 -51 -16 -51 2 0 20 -20 18 -50 -5 -14 -11 -31
-20 -37 -20 -7 0 -13 -4 -13 -9 0 -13 -49 -20 -57 -8 -4 6 -11 3 -19 -8 -15
-21 -19 -19 -28 13 -5 14 -3 22 4 22 9 0 10 13 6 45 -5 27 -3 45 3 45 5 0 11
-5 13 -10 2 -6 2 20 1 57 -1 38 -2 78 -3 91 0 15 -6 22 -20 22 -11 0 -19 3
-19 8 4 21 -3 32 -20 32 -11 0 -23 -5 -26 -10 -5 -8 -11 -7 -21 1 -12 10 -17
8 -28 -6 -8 -12 -15 -14 -20 -7 -3 6 3 16 15 22 23 13 17 24 -17 34 -17 5 -20
2 -18 -24z m-26 -54 c0 -9 -40 -13 -46 -5 -3 5 6 9 20 9 14 0 26 -2 26 -4z
m370 -246 c0 -5 -5 -10 -11 -10 -5 0 -7 5 -4 10 3 6 8 10 11 10 2 0 4 -4 4
-10z m-700 -249 c0 -5 9 -11 20 -14 17 -4 19 -11 14 -31 -3 -15 -1 -32 6 -41
17 -21 3 -35 -36 -35 -31 0 -34 2 -24 19 14 28 12 63 -6 89 -14 21 -14 22 5
22 12 0 21 -4 21 -9z m804 -2 c-17 -29 -21 -79 -7 -98 13 -20 12 -21 -21 -21
-39 0 -52 12 -40 38 4 9 6 26 5 36 -2 11 8 28 21 38 26 20 53 24 42 7z m-968
-21 c4 -7 3 -8 -4 -4 -7 4 -12 0 -12 -10 0 -10 -3 -15 -6 -11 -7 6 2 37 10 37
3 0 8 -5 12 -12z m1131 -40 c-3 -7 -5 -2 -5 12 0 14 2 19 5 13 2 -7 2 -19 0
-25z m-517 1 c-7 -11 -14 -19 -16 -16 -7 7 7 37 17 37 6 0 5 -9 -1 -21z m-50
-54 c0 -2 -7 -5 -15 -9 -9 -3 -15 0 -15 9 0 9 6 12 15 9 8 -4 15 -7 15 -9z"/>
<path d="M426 2012 c-18 -65 -21 -97 -7 -72 12 21 34 120 29 126 -3 2 -13 -22
-22 -54z"/>
<path d="M2214 2025 c8 -49 37 -138 42 -132 5 4 -35 160 -43 167 -3 3 -3 -13
1 -35z"/>
<path d="M2136 1915 c-3 -10 2 -27 14 -42 24 -30 24 -30 6 20 -10 29 -15 35
-20 22z"/>
<path d="M500 1891 c-5 -11 -10 -26 -9 -33 0 -7 5 -3 11 10 6 12 15 22 20 22
4 0 8 5 8 10 0 17 -19 11 -30 -9z"/>
<path d="M1278 1623 c7 -3 16 -2 19 1 4 3 -2 6 -13 5 -11 0 -14 -3 -6 -6z"/>
<path d="M194 1612 c-6 -4 -15 -23 -19 -42 -4 -19 -11 -37 -16 -40 -10 -7 0
-50 11 -50 18 0 31 32 35 84 2 31 3 56 2 56 -1 0 -7 -4 -13 -8z"/>
<path d="M2446 1609 c3 -6 8 -33 9 -61 3 -60 19 -81 39 -53 11 15 11 22 0 44
-8 14 -14 36 -14 47 0 12 -7 25 -16 28 -22 9 -26 8 -18 -5z"/>
<path d="M935 1420 c3 -5 8 -10 11 -10 2 0 4 5 4 10 0 6 -5 10 -11 10 -5 0 -7
-4 -4 -10z"/>
<path d="M1023 1345 c-21 -25 -63 -34 -63 -15 0 16 -26 11 -54 -11 -21 -17
-26 -18 -26 -5 0 21 -26 21 -34 1 -8 -22 18 -29 55 -16 26 9 29 8 20 -3 -6 -7
-8 -16 -4 -20 4 -4 0 -4 -9 -1 -13 5 -15 2 -11 -16 4 -15 3 -20 -5 -15 -7 4
-12 2 -12 -3 0 -6 -7 -11 -15 -11 -8 0 -15 -7 -15 -15 0 -8 -4 -15 -10 -15 -5
0 -10 -10 -10 -22 0 -21 0 -21 -15 -2 -15 19 -15 19 -30 0 -8 -11 -15 -28 -15
-37 0 -12 -20 -27 -57 -44 -32 -14 -69 -33 -83 -40 -14 -8 -38 -20 -53 -26
-21 -8 -27 -17 -24 -30 3 -10 -3 -28 -13 -39 -10 -12 -16 -28 -14 -35 7 -17
-16 -31 -25 -16 -5 7 -15 2 -32 -15 -15 -17 -18 -25 -9 -22 21 8 53 -17 48
-37 -1 -9 -7 -15 -11 -13 -5 2 -13 -5 -18 -15 -9 -15 -12 -15 -25 -3 -8 8 -14
21 -14 30 0 23 -50 58 -66 45 -9 -8 -13 -5 -16 13 -3 25 -45 41 -65 25 -9 -7
-13 -5 -13 7 0 9 -6 16 -14 16 -17 0 -28 24 -20 45 4 8 2 15 -2 15 -5 0 -10
24 -11 52 -2 88 -7 103 -26 100 -23 -4 -21 6 6 30 12 11 16 17 9 13 -6 -3 -19
1 -28 9 -14 14 -17 14 -37 -4 l-21 -21 -8 21 c-8 22 -16 24 -36 11 -16 -9 -19
-71 -8 -117 6 -23 4 -35 -8 -47 -9 -8 -16 -19 -16 -22 0 -4 -9 -20 -21 -36
-14 -20 -16 -29 -7 -29 7 0 2 -7 -10 -16 -20 -14 -22 -24 -22 -98 0 -81 1 -84
25 -90 17 -4 23 -11 18 -23 -4 -11 -3 -14 5 -9 6 4 23 1 37 -7 24 -12 25 -15
11 -26 -9 -8 -16 -19 -16 -25 0 -7 -11 -27 -25 -46 -29 -39 -31 -50 -10 -50
19 0 19 -14 0 -34 -19 -19 -19 -36 1 -36 9 0 12 5 8 11 -4 7 -1 10 7 7 8 -3
14 -11 14 -19 0 -8 3 -18 7 -24 3 -5 9 -25 13 -43 5 -27 11 -33 26 -29 19 5
44 -16 35 -31 -3 -4 6 -20 20 -35 13 -14 24 -32 24 -38 0 -45 24 -139 35 -139
9 0 12 -11 8 -40 -5 -34 -3 -41 16 -48 13 -4 23 -12 24 -17 1 -6 7 -9 13 -7 6
1 14 -4 18 -13 3 -8 1 -15 -5 -15 -6 0 -7 -5 -4 -10 4 -7 353 -10 1042 -10
1030 1 1036 1 1018 20 -17 19 -17 20 3 20 14 0 20 5 16 14 -3 8 4 16 17 19 19
5 21 11 16 46 -3 24 -1 39 4 35 5 -3 9 6 9 20 0 13 5 26 10 28 6 2 11 26 12
53 1 53 14 85 37 85 9 0 11 7 8 21 -7 28 18 56 37 40 7 -6 15 -8 19 -5 11 11
8 812 -3 819 -6 3 -14 -3 -18 -15 l-8 -21 -22 22 c-21 19 -25 19 -40 6 -13
-12 -22 -13 -37 -6 -11 6 -8 1 8 -11 28 -22 36 -42 16 -37 -13 2 -29 -43 -31
-86 -1 -15 -5 -30 -10 -33 -5 -3 -1 -12 9 -20 11 -8 13 -13 6 -14 -7 0 -13 -9
-13 -19 0 -28 -11 -52 -21 -45 -5 3 -9 -2 -9 -10 0 -17 -15 -22 -24 -7 -3 4
-17 6 -31 3 -19 -3 -25 -10 -25 -30 0 -20 -3 -23 -12 -14 -8 8 -18 7 -40 -6
-15 -9 -28 -19 -29 -22 -7 -53 -28 -70 -46 -37 -8 14 -12 17 -13 7 0 -13 -1
-13 -10 0 -14 22 -12 40 5 40 8 0 15 5 15 11 0 6 7 9 15 5 12 -4 13 -2 2 15
-7 11 -19 18 -29 16 -9 -3 -29 4 -45 14 -15 10 -23 19 -18 19 6 0 16 -5 22
-11 8 -8 13 -7 18 2 5 8 -2 21 -21 36 -22 18 -26 25 -15 32 11 7 11 10 0 17
-31 20 -55 34 -69 39 -8 4 -44 20 -80 36 -54 25 -65 35 -67 56 0 14 -7 29 -15
34 -20 13 -28 11 -22 -6 4 -8 1 -15 -4 -15 -6 0 -12 10 -14 23 -2 13 -17 30
-40 42 -42 22 -47 32 -20 42 28 11 44 30 29 36 -9 4 -8 8 3 16 14 10 12 12
-17 11 -5 0 -8 -10 -8 -23 0 -13 -7 -23 -17 -25 -10 -2 -18 1 -18 7 0 6 6 11
12 11 7 0 1 11 -14 25 -31 29 -38 31 -38 10 0 -23 -34 -18 -66 10 -16 13 -32
21 -36 17 -12 -12 10 -77 33 -98 28 -25 51 -84 44 -111 -7 -29 -25 -32 -107
-15 -33 6 -50 6 -59 -2 -9 -8 -10 -8 -5 2 11 18 -19 26 -45 11 -17 -9 -24 -9
-27 0 -2 6 -8 9 -13 5 -5 -3 -9 0 -9 5 0 6 -9 11 -21 11 -11 0 -18 -4 -15 -9
3 -5 -1 -14 -8 -20 -10 -9 -16 -9 -21 -1 -4 6 -14 9 -22 6 -9 -4 -21 1 -29 11
-12 17 -14 17 -43 0 -23 -14 -35 -15 -50 -7 -29 15 -54 13 -47 -5 3 -8 1 -15
-4 -15 -6 0 -10 4 -10 10 0 10 -43 5 -92 -10 -43 -14 -68 -2 -68 32 0 34 29
95 59 122 13 12 21 31 21 53 0 39 -8 41 -37 8z m227 -225 c0 -5 -2 -10 -4 -10
-3 0 -8 5 -11 10 -3 6 -1 10 4 10 6 0 11 -4 11 -10z m-1050 -110 c0 -5 -5 -10
-11 -10 -5 0 -7 5 -4 10 3 6 8 10 11 10 2 0 4 -4 4 -10z m2275 0 c3 -5 1 -10
-4 -10 -6 0 -11 5 -11 10 0 6 2 10 4 10 3 0 8 -4 11 -10z m-1915 -74 c0 -3 -4
-8 -10 -11 -5 -3 -10 -1 -10 4 0 6 5 11 10 11 6 0 10 -2 10 -4z m1970 -500 c0
-3 -4 -8 -10 -11 -5 -3 -10 -1 -10 4 0 6 5 11 10 11 6 0 10 -2 10 -4z"/>
<path d="M1322 1329 c0 -17 -6 -37 -12 -44 -8 -10 -8 -19 -1 -33 7 -13 7 -22
-2 -31 -9 -9 -9 -14 2 -20 21 -13 43 -1 38 20 -3 11 -1 22 4 25 5 3 5 13 -1
24 -5 10 -10 32 -10 49 0 40 -17 49 -18 10z"/>
<path d="M119 1273 c-13 -16 -12 -17 4 -4 16 13 21 21 13 21 -2 0 -10 -8 -17
-17z"/>
<path d="M176 1265 c-3 -8 -1 -15 4 -15 6 0 10 7 10 15 0 8 -2 15 -4 15 -2 0
-6 -7 -10 -15z"/>
<path d="M2466 1265 c4 -8 8 -15 10 -15 2 0 4 7 4 15 0 8 -4 15 -10 15 -5 0
-7 -7 -4 -15z"/>
<path d="M2525 1270 c3 -5 8 -10 11 -10 2 0 4 5 4 10 0 6 -5 10 -11 10 -5 0
-7 -4 -4 -10z"/>
<path d="M28 1075 c-26 -22 -41 -74 -18 -60 5 3 10 13 10 22 0 9 10 27 22 40
28 30 21 29 -14 -2z"/>
<path d="M92 365 c-17 -37 -14 -45 4 -12 9 16 14 31 11 33 -2 2 -9 -7 -15 -21z"/>
<path d="M2482 70 c-18 -17 -42 -30 -53 -30 -15 0 -19 -5 -15 -16 3 -9 6 -18
6 -20 0 -2 13 -4 29 -4 25 0 31 6 49 50 12 28 20 50 19 50 -1 0 -17 -14 -35
-30z"/>
<path d="M150 75 c0 -3 7 -22 15 -41 12 -30 19 -35 42 -32 37 4 40 25 6 40
-15 7 -32 18 -36 25 -8 13 -27 18 -27 8z"/>
</g>
</svg>
